<svg id="Layer_1" data-name="Layer 1" xmlns="http://www.w3.org/2000/svg" viewBox="0 0 148.24 24.29"><defs><style>.cls-1{fill:#fff;fill-rule:evenodd;}</style></defs><path class="cls-1" d="M7.77,5.48l.12,18.23c2,3.59,10.92,1.7,12.72-2.69C22.67,15.94,22.83,4.43,7.77,5.48ZM.88,3.76v.67S3.53,4,4,5.72c0,1.13-.06,18.9-.06,18.9s-.14,1.61-2.5,1.55a1.24,1.24,0,0,1,0,.33,58.31,58.31,0,0,1,8.42.34C28.71,30.25,30.55,4.06,15.08,3.9Z" transform="translate(-0.88 -2.85)"/><path class="cls-1" d="M45.71,4.83c5-.34,9.29,4.74,9.29,9.91s-1.25,10.4-6.52,10.89c-4.38,0-8.85-2.08-9.88-10.34C38.6,10.12,39.83,5.21,45.71,4.83Zm1-1.52c6.44,0,12.62,3.88,12.62,11.45S53.36,27,46.92,27,34.4,22.9,34.4,15.31,40.3,3.31,46.74,3.31Z" transform="translate(-0.88 -2.85)"/><path class="cls-1" d="M67.68,3.38,67,6.55A2.85,2.85,0,0,0,67,8.2a3.07,3.07,0,0,1,1.9-2.46c1.62-.06,6.36-.06,6.36-.06l-.08,19.1s0,1.68-2.4,1.45c0,.29,0,.35,0,.35l9.73,0,0-.37s-3,.45-3.19-1.39c0-1-.18-19.12-.18-19.12l5.61.14s1.92,0,1.9,2.4c.26.16.43-.06.45-.34s.12-3.21.12-3.21.46-1-.14-1.09a5.9,5.9,0,0,1-1.68.32l-16.26,0A4,4,0,0,0,67.68,3.38Z" transform="translate(-0.88 -2.85)"/><path class="cls-1" d="M104.49,9.51l-4,10.4,7.76-.08ZM105,3.27,96.29,24.66A3.36,3.36,0,0,1,93,26.27a1.64,1.64,0,0,1,0,.29l8,0,0-.43s-2.57.2-2.22-1.07c.32-1.07,1.25-3.65,1.25-3.65l8.9,0,1.76,4.14s.2.48-.63.54v.35l7.94.12,0-.53a2.85,2.85,0,0,1-3-.93c-.79-1.33-1.9-3.73-1.9-3.73a3.55,3.55,0,0,0,1.9-.33,10.1,10.1,0,0,1,3.58-.66c.2-.24,0-.53-.63-.57s-5.49,0-5.49,0L105.7,3.32S105.3,2.29,105,3.27Z" transform="translate(-0.88 -2.85)"/><path class="cls-1" d="M135.16,9.64a28,28,0,0,1-.54-4.89c6.08-3.58,19.47-.55,10.8,11.83A51.07,51.07,0,0,1,137.63,24c2.48,0,6.9-.12,7.93-.16,2.71-.1,2.63-3.35,3.56-3.37l-.81,4.76a1.36,1.36,0,0,1-1.66,1.28c-1.63,0-13,0-13,0s-1.07,0-.08-.83c1.64-1.54,10.76-8.58,10.48-15.93C143.81,3.5,136.4,2.59,135.16,9.64Z" transform="translate(-0.88 -2.85)"/></svg>