<svg id="Layer_1" data-name="Layer 1" xmlns="http://www.w3.org/2000/svg" viewBox="0 0 77.77 29.74"><defs><style>.cls-1{fill:#fff;}</style></defs><path class="cls-1" d="M109.58,21.49c-1.32-.33-2.46-.62-2.46-1.71,0-.85.65-1.4,1.68-1.4a1.94,1.94,0,0,1,2,1.56l2.6-1.24A4.63,4.63,0,0,0,108.88,16c-2.8,0-4.74,1.71-4.74,4.14,0,3,2.15,3.56,4.07,4.05,1.35.34,2.49.65,2.49,1.76,0,.93-.76,1.53-1.9,1.53a2.34,2.34,0,0,1-2.36-1.55l-2.59,1.24a5,5,0,0,0,4.85,2.75c3,0,5-1.69,5-4.33C113.68,22.53,111.4,22,109.58,21.49Z" transform="translate(-36.12 -0.13)"/><path class="cls-1" d="M113.88,3.89V5.27h-2.2V6.56h1.92l-.36,1.33h-1.56v2h-1.5v-6Z" transform="translate(-36.12 -0.13)"/><path class="cls-1" d="M106.39,5.29A1.69,1.69,0,1,1,104.71,7,1.68,1.68,0,0,1,106.39,5.29Zm0,4.82A3.15,3.15,0,1,0,103.23,7,3.15,3.15,0,0,0,106.39,10.11Z" transform="translate(-36.12 -0.13)"/><path class="cls-1" d="M78.76,29.48h2.8V20.64l6.35,8.84h2.93V16H88v9l-6.27-9H78.11l.65,1.32Z" transform="translate(-36.12 -0.13)"/><path class="cls-1" d="M100.33,24.35a4,4,0,0,1-2.1,2.12,4,4,0,0,1-1.56.31H95.06v-8h1.61a4,4,0,0,1,1.56.31,3.83,3.83,0,0,1,2.1,2.12A4.24,4.24,0,0,1,100.33,24.35Zm-.94-7.78A8.45,8.45,0,0,0,96.72,16H92.13V29.45h4.59a7.06,7.06,0,0,0,4.88-1.92,6.26,6.26,0,0,0,1.47-2.12A6.59,6.59,0,0,0,101.6,18,7.37,7.37,0,0,0,99.39,16.57Z" transform="translate(-36.12 -0.13)"/><path class="cls-1" d="M54.05,29.48H46V16h8v2.61H49v2.73h4.64l-.7,2.54H49v2.95l5.08,0Z" transform="translate(-36.12 -0.13)"/><path class="cls-1" d="M72.36,18.64h5.08V16h-8V29.48h8V26.89l-5.08,0V23.91H76.3l.7-2.54H72.36Z" transform="translate(-36.12 -0.13)"/><path class="cls-1" d="M82.52,10.76a6.52,6.52,0,0,1-.37-2.3l.06-8.3h2.9l0,8.17a3.36,3.36,0,0,0,.63,2.15,2.56,2.56,0,0,0,3.65,0l0,0a3.25,3.25,0,0,0,.65-2.15l0-8.2h3L93,8.51a7,7,0,0,1-.36,2.3,5.51,5.51,0,0,1-1.09,1.77,4.6,4.6,0,0,1-1.71,1.11,6.74,6.74,0,0,1-4.56,0,4.56,4.56,0,0,1-1.69-1.14,4.81,4.81,0,0,1-1.06-1.77Z" transform="translate(-36.12 -0.13)"/><path class="cls-1" d="M68,9.73A7,7,0,0,1,67.4,7,7,7,0,0,1,68,4.33a7.07,7.07,0,0,1,1.53-2.2A6.86,6.86,0,0,1,71.76.65,6.73,6.73,0,0,1,74.51.13a7.3,7.3,0,0,1,3.65.94A6.15,6.15,0,0,1,80.6,3.63L78,4.88a3.91,3.91,0,0,0-1.4-1.51,4.16,4.16,0,0,0-2.08-.51,4.23,4.23,0,0,0-1.61.31,3.76,3.76,0,0,0-1.29.9,4.09,4.09,0,0,0-.88,1.35,4.41,4.41,0,0,0,0,3.29A4.15,4.15,0,0,0,72.85,11a3.53,3.53,0,0,0,1.63.33,3.86,3.86,0,0,0,2.33-.7,3.17,3.17,0,0,0,1.25-1.86h-4.8l1.2-2.44h6.68c0,.52,0,1.63,0,1.87A8,8,0,0,1,80.65,10a6.37,6.37,0,0,1-3.52,3.5A7.1,7.1,0,0,1,68,9.73Z" transform="translate(-36.12 -0.13)"/><path class="cls-1" d="M36.79,12.27V1.56L36.12.16h3.57V11h5.37l-.75,2.65H36.12Z" transform="translate(-36.12 -0.13)"/><path class="cls-1" d="M36.79,28.08V17.37L36.12,16h3.57V26.83h5.37l-.75,2.65H36.12Z" transform="translate(-36.12 -0.13)"/><path class="cls-1" d="M54.05,13.67H46V.21h8V2.83H49V5.55h4.64l-.7,2.54H49V11l5.08,0Z" transform="translate(-36.12 -0.13)"/><path class="cls-1" d="M102.32,13.67h-8V.21h8V2.83H97.27V5.55h4.64l-.7,2.54H97.27V11l5.08,0v2.62Z" transform="translate(-36.12 -0.13)"/><path class="cls-1" d="M61.73,3.94l1.68,4.54H60ZM58,13.67l1-2.62h5.39l1,2.62h3L63,.16H58.88l.88,1.76L55,13.67Z" transform="translate(-36.12 -0.13)"/><path class="cls-1" d="M60.12,29.69a7.48,7.48,0,0,0,1.5.15,6.62,6.62,0,0,0,2.67-.49,6.32,6.32,0,0,0,3.53-3.5A8,8,0,0,0,68.29,24a14.84,14.84,0,0,0,0-1.89H61.62v0l-1.19,2.44H65.2A3.22,3.22,0,0,1,64,26.45a3.75,3.75,0,0,1-2.31.7,3.82,3.82,0,0,1-.75-.08l-.6-.16c-.1,0-.18-.08-.28-.1a4.1,4.1,0,0,1-2.18-2.28,4.42,4.42,0,0,1,.91-4.67A3.82,3.82,0,0,1,60.07,19a4.27,4.27,0,0,1,1.61-.31,3.76,3.76,0,0,1,2.07.52,3.68,3.68,0,0,1,1.4,1.5l2.64-1.24a6,6,0,0,0-2.43-2.57A7.49,7.49,0,0,0,61.7,16a7,7,0,0,0-5,2,6.75,6.75,0,0,0-1.53,2.2,6.86,6.86,0,0,0,0,5.39,7.68,7.68,0,0,0,1.48,2.23,7.59,7.59,0,0,0,2,1.4A6.08,6.08,0,0,0,60.12,29.69Z" transform="translate(-36.12 -0.13)"/></svg>