<svg id="Layer_1" data-name="Layer 1" xmlns="http://www.w3.org/2000/svg" viewBox="0 0 101.44 29.02"><defs><style>.cls-1{fill:#fff;}</style></defs><path class="cls-1" d="M36,4.5l.76,1.16h.65l.8-1.16V5.66h.58V3.42h-.58L37,5.08,36,3.42h-.61V5.66H36Z" transform="translate(-24.28 -0.49)"/><path class="cls-1" d="M40.36,5.66h2.28l-.07-.58H40.44A.12.12,0,0,1,40.33,5V4h2.2l.11-.58H39.75V5.08h0A.54.54,0,0,0,40.36,5.66Z" transform="translate(-24.28 -0.49)"/><path class="cls-1" d="M24.61,6a.12.12,0,0,0,0,.11s0,.07.15.07a.6.6,0,0,0,.29,0A.08.08,0,0,0,25.08,6a.11.11,0,0,1,0-.07.14.14,0,0,1,.11,0,.15.15,0,0,0,.07-.11V5.59h.08c.07,0,.14-.11.14-.15s0-.07.07-.11a.72.72,0,0,1,.26-.14.2.2,0,0,0,.1-.18c.08,0,.11,0,.19-.11a.07.07,0,0,1,.07-.07c.07,0,.11,0,.14-.07l.11-.11c.11-.08.15-.11.18-.18h.11s.07,0,.11.07a.45.45,0,0,0,.25.18l0,0a.52.52,0,0,0,.29.25v.14c0,.08.07.11.14.15v0a.25.25,0,0,0-.07.18c0,.08,0,.11.07.15v0s0,0,0,.08,0,.07,0,.07a.08.08,0,0,1,.07.07v.36a.26.26,0,0,0,.11.11h.07a.12.12,0,0,1,.08,0,.11.11,0,0,1,0,.07v0a.73.73,0,0,0,.18.14.37.37,0,0,0,.29,0s.07-.07,0-.14,0,0,0-.08,0-.14-.18-.21A.37.37,0,0,1,28,6a.33.33,0,0,1,.07-.26l0,0a1.5,1.5,0,0,0,0-.4V5a1.19,1.19,0,0,0,0-.32,1.4,1.4,0,0,0-.29-.4,1.4,1.4,0,0,1-.22-.25c-.07-.07,0-.18-.18-.29V3.6s0,0,0-.11V3.38a.25.25,0,0,0,.07-.18.11.11,0,0,0,.07,0,1.43,1.43,0,0,1,.15-.11v.18s0,0,.07,0l.15,0V3s0,0,0,0h.22s.07,0,.07,0h0c.07,0,.14,0,.29.07s.14,0,.18,0a.37.37,0,0,1,.18,0V3C29,3,29,3,29.09,3a.15.15,0,0,0,0-.11c-.07,0-.1,0-.18,0s-.1,0-.18,0v0s0,0,0-.07,0-.07,0-.07,0,0-.07,0a.11.11,0,0,0,0-.07s-.07-.07-.11,0v0a.11.11,0,0,0,0-.07s0,.07,0,.07h0v.11a.45.45,0,0,0-.21,0s-.07,0-.29-.07l-.07-.07a0,0,0,0,0,0,0h-.11V2.26s0,0,0,0-.08,0-.11,0h0a1.86,1.86,0,0,1-.25-.08s0,0,0,0a.12.12,0,0,0-.11,0,.08.08,0,0,0-.07.07h0V2a.13.13,0,0,1,0,.11s0,0-.07,0,0,0,0,0-.07.07-.11.07-.18-.07-.21-.18a.65.65,0,0,0,.47,0V2a.15.15,0,0,0,.07,0V1.65a.5.5,0,0,0-.18-.22.58.58,0,0,0-.4,0c-.11.08-.18.11-.18.22s0,0,0,0h.08s0,0,0,0,0,0,0,.08v0l0,0s0,0,0,0v.08a.08.08,0,0,0,.07.07v0c-.07,0-.07,0-.07.07a.5.5,0,0,0-.26.07l-.14,0s-.07,0-.11.07a.15.15,0,0,1-.07,0,.73.73,0,0,0-.15.11s-.07,0-.11.07a.09.09,0,0,0-.07.08.33.33,0,0,1-.11.14s0,0,0,.07,0,.15.07.22h.22S26,3,26.2,3c0,0,0,0,0,0v.26c0,.07,0,.14.08.14a.43.43,0,0,0,0,.22v0s-.07,0-.07.07-.07,0-.11.07,0,0,0,0,0,0-.07,0l-.07.08a.06.06,0,0,0,0,.1s0,0,0,.08a1.83,1.83,0,0,1-.15.25.38.38,0,0,1-.07.11s0,.07,0,.07v0l-.22.25a.13.13,0,0,0,0,.11,0,0,0,0,1,0,0L25.22,5s0,.07,0,.15,0,0,0,.07L25,5.3s0,.11,0,.14a.13.13,0,0,1,0,.11,1.59,1.59,0,0,1-.18.22s-.07.07-.11.07S24.61,5.91,24.61,6Z" transform="translate(-24.28 -0.49)"/><path class="cls-1" d="M58.65,4.76l.25.1h1.7c.14,0,.14.26,0,.26H58.54l-.11.57h2.28a.43.43,0,0,0,.29-.1.84.84,0,0,0,0-1.23.66.66,0,0,0-.44-.07H59c-.14,0-.14-.26,0-.26h2.13l.11-.58H58.9a.42.42,0,0,0-.29.11A.8.8,0,0,0,58.65,4.76Z" transform="translate(-24.28 -0.49)"/><path class="cls-1" d="M30.79,5.66V4h1.15V3.42H29.05V4h1.16V5.66Z" transform="translate(-24.28 -0.49)"/><path class="cls-1" d="M45.35,5.66l.33-.54A.08.08,0,0,1,45.75,5h1.33v.58h.58V3.38H46.51c-.44,0-.62.26-.83.58,0,.07-.11.14-.15.22l-.87,1.48Zm1-1.56c0-.07.07-.07.18-.07h.58V4.5h-1Z" transform="translate(-24.28 -0.49)"/><path class="cls-1" d="M55.58,5.66h.57V4.83l1.2-1.41h-.76l-.72.87-.73-.87h-.76l1.2,1.41Z" transform="translate(-24.28 -0.49)"/><path class="cls-1" d="M48.64,4.25l1.7,1.41h.58V3.42h-.58V4.83l-1.7-1.41h-.58V5.66h.58Z" transform="translate(-24.28 -0.49)"/><path class="cls-1" d="M51.82,5.66H54.1L54,5.08H51.89A.12.12,0,0,1,51.78,5V4H54l.11-.58H51.2V5.08h0A.54.54,0,0,0,51.82,5.66Z" transform="translate(-24.28 -0.49)"/><path class="cls-1" d="M58.4,3.42h-.76l-.26.29V4.1h.44Z" transform="translate(-24.28 -0.49)"/><path class="cls-1" d="M44.88,5.08H43.51V3.42h-.58V5.66h1.55Z" transform="translate(-24.28 -0.49)"/><path class="cls-1" d="M32.41,5.51a.62.62,0,0,0,.47.15h1.63a.52.52,0,0,0,.58-.58V4a.58.58,0,0,0-.58-.58H32.2V5.12A.46.46,0,0,0,32.41,5.51Zm.4-1.44h1.63s.07,0,.07,0V5c0,.07,0,.11-.07.11H32.92c-.07,0-.11,0-.11-.08Z" transform="translate(-24.28 -0.49)"/><path class="cls-1" d="M24.57,5.26l0,.18h0l.08-.18v.18h0V5.23h-.07l0,.14,0-.14h-.07v.21h0Z" transform="translate(-24.28 -0.49)"/><path class="cls-1" d="M24.39,5.44h0V5.26h.07v0h-.18v0h.07Z" transform="translate(-24.28 -0.49)"/><path class="cls-1" d="M38.05,20.4,35.74,8.15H32.88L30.71,19.79l-.93-3.72c1-.44,1.51-1.38,1.51-3.33V12c0-3.22-1.37-3.8-3.79-3.8H24.28V21.81h2.46V16.43h.65l1.37,5.38h4.12l.47-2.49h2l.47,2.49h4.63V8.15H38.05Zm-9.14-7.59c0,1.23-.11,1.59-1.34,1.59h-.83V10.32h.83c1.23,0,1.34.51,1.34,1.63Zm4.62,4.56L34,14.26l.32-2.13.29,2.13.47,3.11Z" transform="translate(-24.28 -0.49)"/><path class="cls-1" d="M97.21,13.79c-1.41-1.16-1.92-1.59-1.92-2.39s.25-1.15,1.19-1.15,1.12.4,1.2,1.55l2.53-.25c-.26-2.46-1.09-3.61-3.8-3.61-2.24,0-3.65,1-3.65,3.57,0,1.92,1.16,2.93,2.78,4.27s2.24,1.8,2.24,2.78c0,.76-.21,1.3-1.22,1.3s-1.34-.25-1.41-2.24L92.58,18c.07,2.49.76,4.22,3.9,4.22,2.86,0,3.91-1.33,3.91-3.61S99,15.34,97.21,13.79Z" transform="translate(-24.28 -0.49)"/><path class="cls-1" d="M103.31,7.9h-2.56V22h2.56Z" transform="translate(-24.28 -0.49)"/><path class="cls-1" d="M125.72,10.25V7.9h-6.54V22.06h6.54V19.72h-3.9V15.45H125v-2.2h-3.21v-3Z" transform="translate(-24.28 -0.49)"/><path class="cls-1" d="M72.85,15.7a17.75,17.75,0,0,1-1.45-1.26l1-6.25H70l-.79,5.49-.33,2.6-.36-2.6-.8-5.49H65.37l-.9,5.53-.4,2.56-.29-2.56-.72-5.53H60.64l.07.65A4.38,4.38,0,0,0,58,8.08a3.7,3.7,0,0,0-3,1.08c-.65-.75-1.77-1-3.29-1H48.39V21.85h3.39c1.48,0,2.57-.15,3.25-.94A3.89,3.89,0,0,0,58,22c3,0,3.94-1.7,3.94-4.09v-.39l.61,4.37h2.57l1.3-8.06,1.23,8.06H72a2.66,2.66,0,0,1-1.63-1.3l.44-2.79,1.55-.21c.07,1.95.33,2.2,1.41,2.2S75,19.21,75,18.45C75.05,17.51,74.44,17,72.85,15.7ZM51,10.18h.87c1.26,0,1.37.43,1.37,1.55v.18c0,1.23-.14,1.63-1.37,1.63H51Zm2.39,8c0,1.12-.15,1.63-1.41,1.63H51V15.6H52c1.23,0,1.38.36,1.38,1.59Zm6.1-.21c0,1.3-.43,1.77-1.37,1.77s-1.34-.47-1.34-1.81V12c0-1.19.36-1.7,1.34-1.7s1.37.51,1.37,1.7Z" transform="translate(-24.28 -0.49)"/><path class="cls-1" d="M90.85.49H89.54v29h1.31Z" transform="translate(-24.28 -0.49)"/><path class="cls-1" d="M114.62,10.25c1.12,0,1.27.32,1.34,2L118.6,12c-.18-2.35-.76-4-3.94-4-2.67,0-4,1.19-4,4.08V18c0,2.92,1.23,4.15,3.51,4.15a3.15,3.15,0,0,0,2.2-.72l.15.68h2V14.22h-3.76v2.17h1.37v.4c0,2.53-.11,3.07-1.37,3.07s-1.45-.54-1.45-1.77v-6C113.36,10.86,113.61,10.25,114.62,10.25Z" transform="translate(-24.28 -0.49)"/><path class="cls-1" d="M45.82,14.91,43.94,8.15h-3V21.81h2.38V13.64l2.46,8.17h2.42V8.15H45.82Z" transform="translate(-24.28 -0.49)"/><path class="cls-1" d="M103.89,22.06h6.51V19.72h-3.91V15.45h3.26v-2.2h-3.26v-3h3.91V7.9h-6.51Z" transform="translate(-24.28 -0.49)"/><path class="cls-1" d="M85.79,8.15H83.4l1.23,3.4Z" transform="translate(-24.28 -0.49)"/><path class="cls-1" d="M83,21.81H85.9l-1.49-4Z" transform="translate(-24.28 -0.49)"/><path class="cls-1" d="M77.48,11.55,75,11.8c-.08-1.12-.33-1.52-1.2-1.52s-1.19.51-1.19,1.12c0,.8.51,1.23,1.92,2.39,1.84,1.52,3.14,2.53,3.14,4.7,0,1.7-.61,2.89-2.13,3.36h2.42V8.19H75.42C76.79,8.62,77.29,9.71,77.48,11.55Z" transform="translate(-24.28 -0.49)"/><path class="cls-1" d="M80.8,8.15h-.33V21.81h.11l2.6-7.19Z" transform="translate(-24.28 -0.49)"/></svg>